<?xml version="1.0" standalone="no"?>
<!DOCTYPE svg PUBLIC "-//W3C//DTD SVG 20010904//EN"
 "http://www.w3.org/TR/2001/REC-SVG-20010904/DTD/svg10.dtd">
<svg version="1.0" xmlns="http://www.w3.org/2000/svg"
 width="308.000000pt" height="330.000000pt" viewBox="0 0 308.000000 330.000000"
 preserveAspectRatio="xMidYMid meet">

<g transform="translate(0.000000,330.000000) scale(0.100000,-0.100000)"
fill="#000000" stroke="none">
<path d="M605 2821 c-93 -87 -171 -163 -173 -169 -2 -7 6 -25 18 -42 28 -39
105 -203 130 -276 55 -160 49 -219 -64 -564 -89 -272 -116 -393 -116 -522 1
-255 134 -490 399 -700 98 -79 152 -112 376 -236 105 -58 212 -125 239 -149
42 -37 54 -43 93 -43 52 0 75 11 123 55 19 18 107 73 195 121 294 160 376 216
514 349 104 100 161 176 214 280 59 119 77 196 77 334 0 152 -20 241 -126 556
l-78 230 0 110 c-1 90 3 122 22 174 25 69 92 209 135 282 l27 45 -118 110
c-64 60 -143 133 -174 163 l-57 53 -63 -56 c-85 -77 -203 -136 -272 -136 -69
0 -145 45 -206 122 l-45 58 -156 0 -157 0 -41 -54 c-22 -30 -62 -70 -88 -88
-43 -30 -55 -33 -118 -33 -58 0 -80 5 -125 29 -62 32 -143 90 -180 129 -14 15
-27 27 -30 26 -3 0 -81 -71 -175 -158z m1060 25 c48 -59 127 -111 199 -132 55
-15 63 -15 119 0 75 21 136 52 214 110 l62 45 121 -111 c66 -61 120 -114 120
-118 0 -5 -22 -53 -50 -107 -27 -55 -64 -142 -81 -194 -28 -79 -32 -108 -32
-184 0 -82 6 -107 58 -270 149 -461 160 -511 152 -665 -4 -84 -11 -122 -35
-188 -90 -244 -295 -433 -717 -662 -93 -51 -186 -107 -207 -125 -67 -61 -72
-62 -130 -11 -28 24 -98 70 -157 102 -331 180 -444 255 -572 383 -86 85 -167
204 -199 289 -78 206 -63 366 70 757 101 298 115 383 85 510 -16 71 -84 238
-127 313 -30 53 -30 54 -12 71 11 10 67 61 125 114 l105 96 37 -30 c64 -52
149 -99 222 -120 60 -18 76 -20 120 -10 72 16 146 62 202 126 l48 55 112 0
112 0 36 -44z"/>
<path d="M2169 2601 c-22 -22 -29 -39 -29 -68 0 -48 20 -78 71 -104 31 -15 40
-25 37 -42 -4 -30 -42 -30 -46 1 -3 17 -10 22 -32 22 -37 0 -42 -9 -29 -53 23
-85 131 -93 165 -12 29 71 7 130 -62 163 -44 22 -54 44 -22 50 10 2 19 -6 23
-18 5 -16 13 -20 33 -18 23 3 27 7 25 33 -3 36 -44 75 -79 75 -15 0 -38 -12
-55 -29z"/>
<path d="M792 2458 l3 -163 30 0 c30 0 30 0 33 63 3 61 3 62 32 62 l30 0 0
-66 0 -65 33 3 32 3 0 160 0 160 -32 3 -33 3 0 -55 c0 -56 0 -56 -30 -56 -30
0 -30 1 -30 55 l0 55 -35 0 -35 0 2 -162z"/>
<path d="M1063 2605 c-38 -27 -60 -130 -43 -210 26 -123 134 -145 189 -38 6
12 11 56 11 98 0 79 -8 104 -43 143 -24 26 -81 30 -114 7z m87 -91 c21 -55 2
-144 -31 -144 -24 0 -39 29 -39 79 0 56 15 91 40 91 13 0 24 -10 30 -26z"/>
<path d="M1250 2456 l0 -166 24 0 c30 0 33 8 31 102 -2 91 9 94 19 6 11 -97
15 -108 41 -108 20 0 24 7 34 63 6 35 12 75 13 88 1 13 4 -14 7 -61 6 -82 7
-85 31 -85 l25 0 3 163 2 162 -44 0 -44 0 -13 -87 -13 -88 -16 85 -16 85 -42
3 -42 3 0 -165z"/>
<path d="M1512 2458 l3 -163 73 1 c86 0 102 12 109 78 4 33 1 53 -12 72 -12
19 -14 29 -6 37 6 6 11 30 11 54 0 66 -23 83 -110 83 l-70 0 2 -162z m112 76
c7 -19 -10 -44 -30 -44 -9 0 -14 11 -14 30 0 23 5 30 19 30 10 0 22 -7 25 -16z
m4 -136 c3 -24 0 -28 -22 -28 -22 0 -26 4 -26 31 0 26 3 30 23 27 16 -2 23
-11 25 -30z"/>
<path d="M1730 2455 l0 -165 30 0 30 0 0 66 c0 82 15 81 44 -1 20 -56 23 -60
55 -63 33 -3 34 -3 28 31 -3 19 -14 52 -25 74 -18 39 -18 41 0 63 25 31 24
100 -3 134 -19 24 -27 26 -90 26 l-69 0 0 -165z m105 65 c0 -29 -32 -41 -41
-16 -9 24 4 48 23 44 12 -2 18 -12 18 -28z"/>
<path d="M1940 2455 l0 -165 85 0 85 0 0 40 0 40 -50 0 c-49 0 -50 1 -50 30 0
29 2 30 45 30 45 0 45 0 45 35 0 35 0 35 -45 35 -38 0 -45 3 -45 20 0 16 7 20
34 20 54 0 66 8 66 46 l0 34 -85 0 -85 0 0 -165z"/>
<path d="M1095 2213 c-16 -14 -59 -52 -93 -85 l-64 -59 41 -84 c23 -46 46
-108 52 -137 11 -58 6 -81 -67 -308 -31 -98 -37 -129 -38 -211 -1 -91 1 -98
36 -171 62 -125 163 -216 358 -324 58 -32 121 -70 140 -86 44 -35 67 -35 110
0 19 16 82 55 140 86 197 108 301 204 363 334 55 117 47 234 -30 455 -62 180
-61 210 9 360 l42 87 -35 36 c-19 20 -60 58 -91 85 l-57 50 -53 -41 c-96 -73
-159 -72 -228 4 -33 36 -34 36 -114 36 -81 0 -81 0 -109 -35 -37 -47 -80 -68
-120 -59 -39 8 -107 47 -132 74 -23 25 -24 25 -60 -7z m516 -62 c74 -72 133
-76 234 -16 31 19 61 35 65 35 4 0 33 -24 66 -54 l59 -53 -38 -79 c-67 -144
-67 -187 2 -393 49 -144 66 -236 57 -308 -18 -151 -141 -284 -381 -413 -44
-24 -97 -56 -118 -73 l-39 -29 -26 20 c-15 12 -52 36 -82 53 -30 17 -91 52
-135 78 -109 62 -226 176 -265 255 -55 115 -49 208 29 437 22 63 42 136 46
161 9 56 -13 144 -55 229 l-31 61 58 53 c32 30 62 54 66 55 5 0 22 -9 37 -20
45 -32 112 -60 146 -60 34 0 116 48 136 80 11 16 23 20 70 20 54 0 61 -3 99
-39z"/>
<path d="M1418 1985 c-137 -44 -219 -217 -219 -461 0 -242 64 -402 185 -467
33 -18 58 -22 131 -22 108 0 169 24 253 100 l52 47 -2 202 -3 201 -145 0 -145
0 -3 -102 -3 -103 61 0 60 0 0 -39 c0 -34 -5 -44 -35 -67 -64 -48 -145 -32
-180 37 -26 49 -40 194 -28 287 13 103 37 152 85 175 33 16 40 17 73 3 27 -12
41 -26 53 -56 19 -46 12 -45 135 -9 37 11 67 25 67 32 0 7 -10 40 -22 75 -24
70 -73 134 -121 159 -44 23 -189 27 -249 8z"/>
</g>
</svg>
